<svg width="100" height="75" viewBox="0 0 100 75" fill="none" xmlns="http://www.w3.org/2000/svg">
<rect width="100" height="75" fill="white"/>
<rect x="40.5" y="52.5" width="20" height="2" rx="0.5" stroke="black"/>
<path d="M41.5 54.5H59.5V68C59.5 68.2761 59.2761 68.5 59 68.5H42C41.7239 68.5 41.5 68.2761 41.5 68V54.5Z" stroke="black"/>
<path d="M40.5 56.5H39.5C38.9477 56.5 38.5 56.9477 38.5 57.5V66.5C38.5 67.0523 38.9477 67.5 39.5 67.5H40.5" stroke="black" stroke-linecap="square"/>
<rect x="44.5" y="57" width="12" height="9" rx="0.5" stroke="black"/>
<path d="M46.5 57V66" stroke="black" stroke-linecap="square"/>
<path d="M48.5 57V66" stroke="black" stroke-linecap="square"/>
<path d="M50.5 57V66" stroke="black" stroke-linecap="square"/>
<path d="M52.5 57V66" stroke="black" stroke-linecap="square"/>
<path d="M54.5 57V66" stroke="black" stroke-linecap="square"/>
<path d="M43.5 68.5H47.5V70C47.5 70.2761 47.2761 70.5 47 70.5H44C43.7239 70.5 43.5 70.2761 43.5 70V68.5Z" stroke="black"/>
<path d="M53.5 68.5H57.5V70C57.5 70.2761 57.2761 70.5 57 70.5H54C53.7239 70.5 53.5 70.2761 53.5 70V68.5Z" stroke="black"/>
<path d="M55.85 49.7C55.9444 49.5741 56.0926 49.5 56.25 49.5H57.75C57.9074 49.5 58.0556 49.5741 58.15 49.7L58.9 50.7C59.1472 51.0296 58.912 51.5 58.5 51.5H55.5C55.088 51.5 54.8528 51.0296 55.1 50.7L55.85 49.7Z" stroke="black"/>
<path d="M55.85 43.7C55.9444 43.5741 56.0926 43.5 56.25 43.5H57.75C57.9074 43.5 58.0556 43.5741 58.15 43.7L58.9 44.7C59.1472 45.0296 58.912 45.5 58.5 45.5H55.5C55.088 45.5 54.8528 45.0296 55.1 44.7L55.85 43.7Z" stroke="black"/>
<path d="M55.85 46.7C55.9444 46.5741 56.0926 46.5 56.25 46.5H57.75C57.9074 46.5 58.0556 46.5741 58.15 46.7L58.9 47.7C59.1472 48.0296 58.912 48.5 58.5 48.5H55.5C55.088 48.5 54.8528 48.0296 55.1 47.7L55.85 46.7Z" stroke="black"/>
<path d="M56 43.5V43.5C56 42.9477 56.4477 42.5 57 42.5V42.5C57.5523 42.5 58 42.9477 58 43.5V43.5" stroke="black"/>
<path d="M48.85 49.7C48.9444 49.5741 49.0926 49.5 49.25 49.5H50.75C50.9074 49.5 51.0556 49.5741 51.15 49.7L51.9 50.7C52.1472 51.0296 51.912 51.5 51.5 51.5H48.5C48.088 51.5 47.8528 51.0296 48.1 50.7L48.85 49.7Z" stroke="black"/>
<path d="M48.85 43.7C48.9444 43.5741 49.0926 43.5 49.25 43.5H50.75C50.9074 43.5 51.0556 43.5741 51.15 43.7L51.9 44.7C52.1472 45.0296 51.912 45.5 51.5 45.5H48.5C48.088 45.5 47.8528 45.0296 48.1 44.7L48.85 43.7Z" stroke="black"/>
<path d="M48.85 46.7C48.9444 46.5741 49.0926 46.5 49.25 46.5H50.75C50.9074 46.5 51.0556 46.5741 51.15 46.7L51.9 47.7C52.1472 48.0296 51.912 48.5 51.5 48.5H48.5C48.088 48.5 47.8528 48.0296 48.1 47.7L48.85 46.7Z" stroke="black"/>
<path d="M49 43.5V43.5C49 42.9477 49.4477 42.5 50 42.5V42.5C50.5523 42.5 51 42.9477 51 43.5V43.5" stroke="black"/>
<path d="M41.85 49.7C41.9444 49.5741 42.0926 49.5 42.25 49.5H43.75C43.9074 49.5 44.0556 49.5741 44.15 49.7L44.9 50.7C45.1472 51.0296 44.912 51.5 44.5 51.5H41.5C41.088 51.5 40.8528 51.0296 41.1 50.7L41.85 49.7Z" stroke="black"/>
<path d="M41.85 43.7C41.9444 43.5741 42.0926 43.5 42.25 43.5H43.75C43.9074 43.5 44.0556 43.5741 44.15 43.7L44.9 44.7C45.1472 45.0296 44.912 45.5 44.5 45.5H41.5C41.088 45.5 40.8528 45.0296 41.1 44.7L41.85 43.7Z" stroke="black"/>
<path d="M41.85 46.7C41.9444 46.5741 42.0926 46.5 42.25 46.5H43.75C43.9074 46.5 44.0556 46.5741 44.15 46.7L44.9 47.7C45.1472 48.0296 44.912 48.5 44.5 48.5H41.5C41.088 48.5 40.8528 48.0296 41.1 47.7L41.85 46.7Z" stroke="black"/>
<path d="M42 43.5V43.5C42 42.9477 42.4477 42.5 43 42.5V42.5C43.5523 42.5 44 42.9477 44 43.5V43.5" stroke="black"/>
<path d="M30.0725 40.11V70.5001C30.0725 71.0523 30.5202 71.5001 31.0725 71.5001H68.9275C69.4798 71.5001 69.9275 71.0523 69.9275 70.5001V40.11M30.0725 40.11L49.7069 34.0899C49.8979 34.0314 50.1021 34.0314 50.2931 34.0899L69.9275 40.11M30.0725 40.11L28.2782 40.6298C27.6386 40.815 27 40.3351 27 39.6692V37.2566C27 36.809 27.2974 36.416 27.728 36.2942L49.728 30.0769C49.9059 30.0266 50.0941 30.0266 50.272 30.0769L72.272 36.2942C72.7026 36.416 73 36.809 73 37.2566V39.6692C73 40.3351 72.3614 40.815 71.7218 40.6298L69.9275 40.11" stroke="black"/>
<path d="M12.4509 22.123L0.5 27.5H12.5" stroke="black" stroke-linecap="round" stroke-linejoin="round"/>
<path d="M23.574 22.123L35.5 27.5H23.5" stroke="black" stroke-linecap="round" stroke-linejoin="round"/>
<path d="M6.5 71.5L23.5 47.5" stroke="black" stroke-linecap="round" stroke-linejoin="round"/>
<path d="M29.5 71.5L12.5 47.5" stroke="black" stroke-linecap="round" stroke-linejoin="round"/>
<path d="M12.5 47.5H23.5" stroke="black" stroke-linecap="round" stroke-linejoin="round"/>
<path d="M6.5 71.5L12.4848 47.7736C12.4949 47.7337 12.5 47.6926 12.5 47.6513V22.123C12.5 22.0422 12.5196 21.9626 12.5571 21.891L17.5571 12.3456C17.7443 11.9882 18.2557 11.9882 18.4429 12.3456L23.4433 21.8917C23.4805 21.9629 23.5001 22.0419 23.5004 22.1223L23.5738 47.6528C23.574 47.6931 23.5789 47.7332 23.5887 47.7722L29.5 71.5" stroke="black" stroke-linecap="round"/>
<path d="M12.5 35.5H23.5" stroke="black" stroke-linecap="round" stroke-linejoin="round"/>
<path d="M12.5 22.5H23.5" stroke="black" stroke-linecap="round" stroke-linejoin="round"/>
<path d="M12.5 22.5L23.5 35.5" stroke="black" stroke-linecap="round" stroke-linejoin="round"/>
<path d="M12.5 35.5L23.5 22.5" stroke="black" stroke-linecap="round" stroke-linejoin="round"/>
<path d="M12.5 47.5L23.5 35.5" stroke="black" stroke-linecap="round" stroke-linejoin="round"/>
<path d="M12.5 35.5L23.5 47.5" stroke="black" stroke-linecap="round" stroke-linejoin="round"/>
<path d="M76.4509 22.123L64.5 27.5H76.5" stroke="black" stroke-linecap="round" stroke-linejoin="round"/>
<path d="M87.574 22.123L99.5 27.5H87.5" stroke="black" stroke-linecap="round" stroke-linejoin="round"/>
<path d="M70.5 71.5L87.5 47.5" stroke="black" stroke-linecap="round" stroke-linejoin="round"/>
<path d="M93.5 71.5L76.5 47.5" stroke="black" stroke-linecap="round" stroke-linejoin="round"/>
<path d="M76.5 47.5H87.5" stroke="black" stroke-linecap="round" stroke-linejoin="round"/>
<path d="M70.5 71.5L76.4848 47.7736C76.4949 47.7337 76.5 47.6926 76.5 47.6513V22.123C76.5 22.0422 76.5196 21.9626 76.5571 21.891L81.5571 12.3456C81.7443 11.9882 82.2557 11.9882 82.4429 12.3456L87.4433 21.8917C87.4805 21.9629 87.5001 22.0419 87.5004 22.1223L87.5738 47.6528C87.574 47.6931 87.5789 47.7332 87.5887 47.7722L93.5 71.5" stroke="black" stroke-linecap="round"/>
<path d="M76.5 35.5H87.5" stroke="black" stroke-linecap="round" stroke-linejoin="round"/>
<path d="M76.5 22.5H87.5" stroke="black" stroke-linecap="round" stroke-linejoin="round"/>
<path d="M76.5 22.5L87.5 35.5" stroke="black" stroke-linecap="round" stroke-linejoin="round"/>
<path d="M76.5 35.5L87.5 22.5" stroke="black" stroke-linecap="round" stroke-linejoin="round"/>
<path d="M76.5 47.5L87.5 35.5" stroke="black" stroke-linecap="round" stroke-linejoin="round"/>
<path d="M76.5 35.5L87.5 47.5" stroke="black" stroke-linecap="round" stroke-linejoin="round"/>
<path d="M4.5 71.5H8.5" stroke="black" stroke-linecap="round"/>
<path d="M27 71.5H31" stroke="black" stroke-linecap="round"/>
<path d="M69 71.5H73" stroke="black" stroke-linecap="round"/>
<path d="M91.5 71.5H95.5" stroke="black" stroke-linecap="round"/>
<path d="M35.5 27.5C39.1667 28.3333 50.1 29.5 64.5 27.5" stroke="black" stroke-linecap="round"/>
</svg>
