<svg xmlns="http://www.w3.org/2000/svg" xmlns:d="http://www.mathworks.com/blockgraphics" xmlns:xlink="http://www.w3.org/1999/xlink" version="1.1" id="svg" width="50" height="50" viewBox="0 0 50 50" fill="none">
	<g id="part_1" title="part_0" ie-ports="left:simulink,top:,right:simulink*simulink,bottom:">
		<rect id="rect" fill="white" style="stroke: #ffffff;" x="0" y="0" width="50" height="50" rx="0" ry="0"/>
		<rect id="rect_1" stroke="black" style="stroke:#1171be;" x="7.5" y="13.5" width="35" height="25" rx="0.5" ry="0.5"/>
		<path id="path" stroke="black" stroke-linecap="round" style="stroke:#1171be;" d=" M 17.5,13.52 L 17.5,38.5"/>
		<rect id="rect_2" stroke="black" style="stroke:#1171be;" x="9.5" y="16.5" width="2" height="2" rx="0.5" ry="0.5"/>
		<rect id="rect_3" stroke="black" style="stroke:#1171be;" x="13.5" y="16.5" width="2" height="2" rx="0.5" ry="0.5"/>
		<rect id="rect_4" stroke="black" style="stroke:#1171be;" x="19.5" y="16" width="21" height="7" rx="0.5" ry="0.5"/>
		<rect id="rect_5" stroke="black" style="stroke:#1171be;" x="9.5" y="20.5" width="2" height="2" rx="0.5" ry="0.5"/>
		<rect id="rect_6" stroke="black" style="stroke:#1171be;" x="13.5" y="20.5" width="2" height="2" rx="0.5" ry="0.5"/>
		<rect id="rect_7" stroke="black" style="stroke:#1171be;" x="9.5" y="24.5" width="6" height="2" rx="0.5" ry="0.5"/>
		<rect id="rect_8" stroke="black" style="stroke:#1171be;" x="9.5" y="28.5" width="6" height="2" rx="0.5" ry="0.5"/>
		<rect id="rect_9" stroke="black" style="stroke:#1171be;" x="9.5" y="32.5" width="6" height="2" rx="0.5" ry="0.5"/>
		<ellipse id="ellipse" stroke="black" style="stroke:#1171be;" cx="22" cy="29" rx="2.5" ry="2.5"/>
		<path id="path_10" stroke="black" stroke-linecap="round" style="stroke:#1171be;" d=" M 22,29 L 23.5,30.5"/>
		<path id="path_11" stroke="black" stroke-linecap="round" style="stroke:#1171be;" d=" M 28.5,25 V 35"/>
		<path id="path_12" stroke="black" stroke-linecap="round" style="stroke:#1171be;" d=" M 33.5,25 V 35"/>
		<rect id="rect_13" fill="white" stroke="black" style="stroke:#1171be;" x="26.5" y="26.5" width="4" height="2" rx="1" ry="1"/>
		<rect id="rect_14" fill="white" stroke="black" style="stroke:#1171be;" x="31.5" y="31.5" width="4" height="2" rx="1" ry="1"/>
		<path id="path_15" stroke="black" stroke-linecap="round" style="stroke:#1171be;" d=" M 38.5,25 V 35"/>
		<rect id="rect_16" fill="white" stroke="black" style="stroke:#1171be;" x="36.5" y="26.5" width="4" height="2" rx="1" ry="1"/>
	</g>
</svg>
