<svg width="50" height="50" viewBox="0 0 50 50" fill="none" xmlns="http://www.w3.org/2000/svg">
<rect width="50" height="50" fill="white"/>
<rect x="5.5" y="25.5" width="2" height="11" rx="1" transform="rotate(-90 5.5 25.5)" stroke="black"/>
<path d="M41.5 15.5H36.5V33.5H41.5C44.2614 33.5 46.5 31.2614 46.5 28.5V20.5C46.5 17.7386 44.2614 15.5 41.5 15.5Z" stroke="black"/>
<rect x="16.5" y="15.5" width="20" height="18" rx="1" stroke="black"/>
<rect x="15" y="37.5" width="27" height="3" rx="1" stroke="black"/>
<rect x="18" y="33.5" width="17" height="4" rx="1" stroke="black"/>
<rect x="14.5" y="16.5" width="2" height="16" rx="1" fill="white" stroke="black"/>
<rect x="12.5" y="19" width="2" height="11" rx="1" fill="white" stroke="black"/>
<rect x="18.5" y="12.5" width="16" height="3" rx="1" stroke="black"/>
<path d="M16.5 17.5H36.5" stroke="black"/>
<path d="M16.5 19.5H36.5" stroke="black"/>
<path d="M16.5 21.5H36.5" stroke="black"/>
<path d="M16.5 23.5H36.5" stroke="black"/>
<path d="M16.5 25.5H36.5" stroke="black"/>
<path d="M16.5 27.5H36.5" stroke="black"/>
<path d="M16.5 29.5H36.5" stroke="black"/>
<path d="M16.5 31.5H36.5" stroke="black"/>
</svg>
