<svg width="50" height="51" viewBox="0 0 50 51" fill="none" xmlns="http://www.w3.org/2000/svg">
<rect width="50" height="50" transform="translate(0 0.0322266)" fill="white"/>
<path d="M14.5 22.5322L24.2929 12.7393C24.6834 12.3488 25.3166 12.3488 25.7071 12.7393L35 22.0322L37.5687 24.601C37.7918 24.8241 38.1633 24.7873 38.3383 24.5248L39.7726 22.3733C39.9048 22.175 39.8787 21.9109 39.7102 21.7424L26.4142 8.44644C25.6332 7.66539 24.3668 7.66539 23.5858 8.44644L10.2898 21.7424C10.1213 21.9109 10.0952 22.175 10.2274 22.3733L11.6617 24.5248C11.8367 24.7873 12.2082 24.8241 12.4313 24.601L14.5 22.5322ZM14.5 22.5322V35.5322C14.5 35.8084 14.7239 36.0322 15 36.0322H35.5" stroke="black" stroke-linecap="round" stroke-linejoin="round"/>
<path d="M35.5 36.0322V22.5322" stroke="black" stroke-linecap="round" stroke-linejoin="round"/>
<path d="M25.5 21.0322L23.5 25.0322H26.5L24.5 29.0322" stroke="black"/>
<circle cx="25" cy="25.0322" r="5.5" stroke="black"/>
</svg>
