<svg width="50" height="50" viewBox="0 0 50 50" fill="none" xmlns="http://www.w3.org/2000/svg">
<rect width="50" height="50" fill="white"/>
<mask id="path-1-inside-1_145_416" fill="white">
<path d="M23 14.5C23.5523 14.5 24.0057 14.9491 23.9445 15.498C23.7853 16.9249 23.2863 18.2983 22.4832 19.5001C21.4943 20.9802 20.0887 22.1337 18.4442 22.8149C16.7996 23.4961 14.99 23.6743 13.2442 23.3271C11.4984 22.9798 9.89471 22.1226 8.63604 20.864C7.37737 19.6053 6.5202 18.0016 6.17293 16.2558C5.82567 14.51 6.0039 12.7004 6.68508 11.0558C7.36627 9.41131 8.51983 8.00571 9.99987 7.01677C11.2017 6.21371 12.5751 5.7147 14.002 5.55549C14.5509 5.49425 15 5.94772 15 6.5L15 13.5C15 14.0523 15.4477 14.5 16 14.5H23Z"/>
</mask>
<path d="M23 14.5C23.5523 14.5 24.0057 14.9491 23.9445 15.498C23.7853 16.9249 23.2863 18.2983 22.4832 19.5001C21.4943 20.9802 20.0887 22.1337 18.4442 22.8149C16.7996 23.4961 14.99 23.6743 13.2442 23.3271C11.4984 22.9798 9.89471 22.1226 8.63604 20.864C7.37737 19.6053 6.5202 18.0016 6.17293 16.2558C5.82567 14.51 6.0039 12.7004 6.68508 11.0558C7.36627 9.41131 8.51983 8.00571 9.99987 7.01677C11.2017 6.21371 12.5751 5.7147 14.002 5.55549C14.5509 5.49425 15 5.94772 15 6.5L15 13.5C15 14.0523 15.4477 14.5 16 14.5H23Z" stroke="black" stroke-width="2" mask="url(#path-1-inside-1_145_416)"/>
<mask id="path-2-inside-2_145_416" fill="white">
<path d="M24 13C24.5523 13 25.0057 12.5509 24.9445 12.002C24.8509 11.1628 24.6394 10.3391 24.3149 9.55585C23.8626 8.46392 23.1997 7.47177 22.364 6.63604C21.5282 5.80031 20.5361 5.13738 19.4442 4.68508C18.6609 4.36064 17.8372 4.14914 16.998 4.0555C16.4491 3.99426 16 4.44772 16 5L16 12C16 12.5523 16.4477 13 17 13H24Z"/>
</mask>
<path d="M24 13C24.5523 13 25.0057 12.5509 24.9445 12.002C24.8509 11.1628 24.6394 10.3391 24.3149 9.55585C23.8626 8.46392 23.1997 7.47177 22.364 6.63604C21.5282 5.80031 20.5361 5.13738 19.4442 4.68508C18.6609 4.36064 17.8372 4.14914 16.998 4.0555C16.4491 3.99426 16 4.44772 16 5L16 12C16 12.5523 16.4477 13 17 13H24Z" stroke="black" stroke-width="2" mask="url(#path-2-inside-2_145_416)"/>
<path d="M28.5 7.5H41.5" stroke="black" stroke-linecap="round"/>
<path d="M28.5 12.5H41.5" stroke="black" stroke-linecap="round"/>
<path d="M28.5 17.5H41.5" stroke="black" stroke-linecap="round"/>
<path d="M9.5 28.5H22.5" stroke="black" stroke-linecap="round"/>
<path d="M9.5 33.5H22.5" stroke="black" stroke-linecap="round"/>
<path d="M9.5 38.5H22.5" stroke="black" stroke-linecap="round"/>
<rect x="29" y="30.5" width="2" height="9" rx="0.5" fill="white" stroke="black"/>
<rect x="34" y="34.5" width="2" height="5" rx="0.5" fill="white" stroke="black"/>
<rect x="39" y="28.5" width="2" height="11" rx="0.5" fill="white" stroke="black"/>
<path d="M26 28.5L30 26.5L35 30.5L40 24.5" stroke="black" stroke-linecap="round"/>
<path d="M41.0035 22.6667C41.3549 22.5693 41.689 22.8686 41.6306 23.2285L41.3405 25.0185C41.2772 25.4087 40.8077 25.5747 40.5133 25.3109L39.0559 24.0052C38.7616 23.7415 38.8752 23.2565 39.2561 23.151L41.0035 22.6667Z" fill="black"/>
</svg>
