<svg width="50" height="50" viewBox="0 0 50 50" fill="none" xmlns="http://www.w3.org/2000/svg">
<rect width="50" height="50" fill="white"/>
<path d="M18.5 19.4114C20.5 17 23 16.5 25 16.5C29.6944 16.5 33.5 20.9249 33.5 27C33.5 33.0751 29.6944 37.5 25 37.5C22.3925 37.5 20.5 36.5 19 34.5886" stroke="black"/>
<path d="M25 16.5H47.5" stroke="black" stroke-linecap="round"/>
<path fill-rule="evenodd" clip-rule="evenodd" d="M7 19.4999C7 19.2237 7.22386 18.9999 7.5 18.9999H24.2899C24.856 18.9999 25.4383 19.1876 25.8774 19.6105C27.1824 20.8674 28.5661 22.9107 28.9376 25.4553C29.3123 28.0216 28.6478 31.0352 25.9575 34.1816C25.4959 34.7216 24.8203 34.9999 24.1359 34.9999H7.5C7.22386 34.9999 7 34.776 7 34.4999C7 34.2237 7.22386 33.9999 7.5 33.9999H24.1359C24.5544 33.9999 24.9424 33.8302 25.1975 33.5318C27.7194 30.5822 28.2771 27.8526 27.9481 25.5998C27.616 23.3252 26.3702 21.4735 25.1837 20.3308C24.9612 20.1165 24.6426 19.9999 24.2899 19.9999H7.5C7.22386 19.9999 7 19.776 7 19.4999Z" fill="black"/>
<path d="M25 37.5H47.5" stroke="black" stroke-linecap="round"/>
<path d="M13 27C13 29.1114 12.3575 31.0037 11.3426 32.3569C10.3279 33.7099 8.96419 34.5 7.5 34.5C6.03581 34.5 4.67211 33.7099 3.65736 32.3569C2.64249 31.0037 2 29.1114 2 27C2 24.8886 2.64249 22.9963 3.65736 21.6431C4.67211 20.2901 6.03581 19.5 7.5 19.5C8.96419 19.5 10.3279 20.2901 11.3426 21.6431C12.3575 22.9963 13 24.8886 13 27Z" fill="white" stroke="black"/>
<circle cx="7" cy="24.5" r="2" stroke="black"/>
<circle cx="9.5" cy="28" r="2" stroke="black"/>
<circle cx="5.5" cy="28.5" r="2" stroke="black"/>
</svg>
