<svg xmlns="http://www.w3.org/2000/svg" xmlns:d="http://www.mathworks.com/blockgraphics" xmlns:xlink="http://www.w3.org/1999/xlink" version="1.1" id="svg" width="100" height="50" viewBox="0 0 100 50" fill="none">
	<g id="part" title="part_0" ie-ports="left:,top:simulink,right:simulink,bottom:simulink">
		<rect id="rect" fill="white" style="stroke: #ffffff;" x="0" y="0" width="100" height="50" rx="0" ry="0"/>
		<rect id="rect_1" stroke="black" style="stroke:#1171be;" x="17.5" y="16.5" width="24" height="2" rx="0.5" ry="0.5"/>
		<path id="path" stroke="black" style="stroke:#1171be;" d=" M 18.5,18.5 H 40.5 V 35 C 40.5,35.28 40.28,35.5 40,35.5 H 19 C 18.72,35.5 18.5,35.28 18.5,35 V 18.5 Z"/>
		<path id="path_2" stroke="black" stroke-linecap="square" style="stroke:#1171be;" d=" M 18,20 H 16 C 15.45,20 15,20.45 15,21 V 33 C 15,33.55 15.45,34 16,34 H 18"/>
		<rect id="rect_3" stroke="black" style="stroke:#1171be;" x="21.5" y="21.5" width="16" height="11" rx="0.5" ry="0.5"/>
		<path id="path_4" stroke="black" stroke-linecap="square" style="stroke:#1171be;" d=" M 23.5,21.5 V 32.5"/>
		<path id="path_5" stroke="black" stroke-linecap="square" style="stroke:#1171be;" d=" M 25.5,21.5 V 32.5"/>
		<path id="path_6" stroke="black" stroke-linecap="square" style="stroke:#1171be;" d=" M 27.5,21.5 V 32.5"/>
		<path id="path_7" stroke="black" stroke-linecap="square" style="stroke:#1171be;" d=" M 29.5,21.5 V 32.5"/>
		<path id="path_8" stroke="black" stroke-linecap="square" style="stroke:#1171be;" d=" M 31.5,21.5 V 32.5"/>
		<path id="path_9" stroke="black" stroke-linecap="square" style="stroke:#1171be;" d=" M 33.5,21.5 V 32.5"/>
		<path id="path_10" stroke="black" stroke-linecap="square" style="stroke:#1171be;" d=" M 35.5,21.5 V 32.5"/>
		<path id="path_11" stroke="black" style="stroke:#1171be;" d=" M 20.5,35.5 H 25.5 V 38 C 25.5,38.28 25.28,38.5 25,38.5 H 21 C 20.72,38.5 20.5,38.28 20.5,38 V 35.5 Z"/>
		<path id="path_12" stroke="black" style="stroke:#1171be;" d=" M 33.5,35.5 H 38.5 V 38 C 38.5,38.28 38.28,38.5 38,38.5 H 34 C 33.72,38.5 33.5,38.28 33.5,38 V 35.5 Z"/>
		<path id="path_13" stroke="black" style="stroke:#1171be;" d=" M 20.65,14.17 C 20.75,14.06 20.88,14 21.02,14 H 22.98 C 23.12,14 23.25,14.06 23.35,14.17 L 24.25,15.17 C 24.54,15.49 24.31,16 23.88,16 H 20.12 C 19.69,16 19.46,15.49 19.75,15.17 L 20.65,14.17 Z"/>
		<path id="path_14" stroke="black" style="stroke:#1171be;" d=" M 28.15,14.17 C 28.25,14.06 28.38,14 28.52,14 H 30.48 C 30.62,14 30.75,14.06 30.85,14.17 L 31.75,15.17 C 32.04,15.49 31.81,16 31.38,16 H 27.62 C 27.19,16 26.96,15.49 27.25,15.17 L 28.15,14.17 Z"/>
		<path id="path_15" stroke="black" style="stroke:#1171be;" d=" M 35.65,14.17 C 35.75,14.06 35.88,14 36.02,14 H 37.98 C 38.12,14 38.25,14.06 38.35,14.17 L 39.25,15.17 C 39.54,15.49 39.31,16 38.88,16 H 35.12 C 34.69,16 34.46,15.49 34.75,15.17 L 35.65,14.17 Z"/>
		<path id="path_16" stroke="black" style="stroke:#1171be;" d=" M 20.65,11.17 C 20.75,11.06 20.88,11 21.02,11 H 22.98 C 23.12,11 23.25,11.06 23.35,11.17 L 24.25,12.17 C 24.54,12.49 24.31,13 23.88,13 H 20.12 C 19.69,13 19.46,12.49 19.75,12.17 L 20.65,11.17 Z"/>
		<path id="path_17" stroke="black" style="stroke:#1171be;" d=" M 28.15,11.17 C 28.25,11.06 28.38,11 28.52,11 H 30.48 C 30.62,11 30.75,11.06 30.85,11.17 L 31.75,12.17 C 32.04,12.49 31.81,13 31.38,13 H 27.62 C 27.19,13 26.96,12.49 27.25,12.17 L 28.15,11.17 Z"/>
		<path id="path_18" stroke="black" style="stroke:#1171be;" d=" M 35.65,11.17 C 35.75,11.06 35.88,11 36.02,11 H 37.98 C 38.12,11 38.25,11.06 38.35,11.17 L 39.25,12.17 C 39.54,12.49 39.31,13 38.88,13 H 35.12 C 34.69,13 34.46,12.49 34.75,12.17 L 35.65,11.17 Z"/>
		<path id="path_19" stroke="black" style="stroke:#1171be;" d=" M 20.65,8.17 C 20.75,8.06 20.88,8 21.02,8 H 22.98 C 23.12,8 23.25,8.06 23.35,8.17 L 24.25,9.17 C 24.54,9.49 24.31,10 23.88,10 H 20.12 C 19.69,10 19.46,9.49 19.75,9.17 L 20.65,8.17 Z"/>
		<path id="path_20" stroke="black" style="stroke:#1171be;" d=" M 28.15,8.17 C 28.25,8.06 28.38,8 28.52,8 H 30.48 C 30.62,8 30.75,8.06 30.85,8.17 L 31.75,9.17 C 32.04,9.49 31.81,10 31.38,10 H 27.62 C 27.19,10 26.96,9.49 27.25,9.17 L 28.15,8.17 Z"/>
		<path id="path_21" stroke="black" style="stroke:#1171be;" d=" M 35.65,8.17 C 35.75,8.06 35.88,8 36.02,8 H 37.98 C 38.12,8 38.25,8.06 38.35,8.17 L 39.25,9.17 C 39.54,9.49 39.31,10 38.88,10 H 35.12 C 34.69,10 34.46,9.49 34.75,9.17 L 35.65,8.17 Z"/>
		<path id="path_22" stroke="black" style="stroke:#1171be;" d=" M 28.5,8 V 7 C 28.5,6.45 28.95,6 29.5,6 V 6 C 30.05,6 30.5,6.45 30.5,7 V 8"/>
		<path id="path_23" stroke="black" style="stroke:#1171be;" d=" M 36,8 V 7 C 36,6.45 36.45,6 37,6 V 6 C 37.55,6 38,6.45 38,7 V 8"/>
		<path id="path_24" stroke="black" style="stroke:#1171be;" d=" M 21,8 V 7 C 21,6.45 21.45,6 22,6 V 6 C 22.55,6 23,6.45 23,7 V 8"/>
		<rect id="rect_25" stroke="black" style="stroke:#1171be;" x="49.5" y="24.5" width="5" height="5" rx="0.5" ry="0.5"/>
		<rect id="rect_26" stroke="black" style="stroke:#1171be;" x="79.5" y="24.5" width="5" height="5" rx="0.5" ry="0.5"/>
		<path id="path_27" stroke="black" stroke-linecap="round" style="stroke:#1171be;" d=" M 52,30 V 34.5 C 52,35.05 52.45,35.5 53,35.5 H 62"/>
		<path id="path_28" stroke="black" stroke-linecap="round" style="stroke:#1171be;" d=" M 82,30 V 34.5 C 82,35.05 81.55,35.5 81,35.5 H 72.5"/>
		<path id="path_29" stroke="black" stroke-linecap="round" style="stroke:#1171be;" d=" M 55,27 L 81,15.5"/>
		<rect id="rect_30" stroke="black" style="stroke:#1171be;" x="62" y="33.5" width="10" height="4" rx="0.5" ry="0.5"/>
	</g>
</svg>
