<svg width="100" height="50" viewBox="0 0 100 50" fill="none" xmlns="http://www.w3.org/2000/svg">
<rect width="100" height="50" fill="white"/>
<rect x="17.5" y="16.5" width="24" height="2" rx="0.5" stroke="black"/>
<path d="M18.5 18.5H40.5V35C40.5 35.2761 40.2761 35.5 40 35.5H19C18.7239 35.5 18.5 35.2761 18.5 35V18.5Z" stroke="black"/>
<path d="M18 20H16C15.4477 20 15 20.4477 15 21V33C15 33.5523 15.4477 34 16 34H18" stroke="black" stroke-linecap="square"/>
<rect x="21.5" y="21.5" width="16" height="11" rx="0.5" stroke="black"/>
<path d="M23.5 21.5V32.5" stroke="black" stroke-linecap="square"/>
<path d="M25.5 21.5V32.5" stroke="black" stroke-linecap="square"/>
<path d="M27.5 21.5V32.5" stroke="black" stroke-linecap="square"/>
<path d="M29.5 21.5V32.5" stroke="black" stroke-linecap="square"/>
<path d="M31.5 21.5V32.5" stroke="black" stroke-linecap="square"/>
<path d="M33.5 21.5V32.5" stroke="black" stroke-linecap="square"/>
<path d="M35.5 21.5V32.5" stroke="black" stroke-linecap="square"/>
<path d="M20.5 35.5H25.5V38C25.5 38.2761 25.2761 38.5 25 38.5H21C20.7239 38.5 20.5 38.2761 20.5 38V35.5Z" stroke="black"/>
<path d="M33.5 35.5H38.5V38C38.5 38.2761 38.2761 38.5 38 38.5H34C33.7239 38.5 33.5 38.2761 33.5 38V35.5Z" stroke="black"/>
<path d="M20.651 14.1655C20.7459 14.0602 20.8809 14 21.0227 14H22.9773C23.1191 14 23.2541 14.0602 23.349 14.1655L24.249 15.1655C24.5386 15.4873 24.3102 16 23.8773 16H20.1227C19.6898 16 19.4614 15.4873 19.751 15.1655L20.651 14.1655Z" stroke="black"/>
<path d="M28.151 14.1655C28.2459 14.0602 28.3809 14 28.5227 14H30.4773C30.6191 14 30.7541 14.0602 30.849 14.1655L31.749 15.1655C32.0386 15.4873 31.8102 16 31.3773 16H27.6227C27.1898 16 26.9614 15.4873 27.251 15.1655L28.151 14.1655Z" stroke="black"/>
<path d="M35.651 14.1655C35.7459 14.0602 35.8809 14 36.0227 14H37.9773C38.1191 14 38.2541 14.0602 38.349 14.1655L39.249 15.1655C39.5386 15.4873 39.3102 16 38.8773 16H35.1227C34.6898 16 34.4614 15.4873 34.751 15.1655L35.651 14.1655Z" stroke="black"/>
<path d="M20.651 11.1655C20.7459 11.0602 20.8809 11 21.0227 11H22.9773C23.1191 11 23.2541 11.0602 23.349 11.1655L24.249 12.1655C24.5386 12.4873 24.3102 13 23.8773 13H20.1227C19.6898 13 19.4614 12.4873 19.751 12.1655L20.651 11.1655Z" stroke="black"/>
<path d="M28.151 11.1655C28.2459 11.0602 28.3809 11 28.5227 11H30.4773C30.6191 11 30.7541 11.0602 30.849 11.1655L31.749 12.1655C32.0386 12.4873 31.8102 13 31.3773 13H27.6227C27.1898 13 26.9614 12.4873 27.251 12.1655L28.151 11.1655Z" stroke="black"/>
<path d="M35.651 11.1655C35.7459 11.0602 35.8809 11 36.0227 11H37.9773C38.1191 11 38.2541 11.0602 38.349 11.1655L39.249 12.1655C39.5386 12.4873 39.3102 13 38.8773 13H35.1227C34.6898 13 34.4614 12.4873 34.751 12.1655L35.651 11.1655Z" stroke="black"/>
<path d="M20.651 8.16552C20.7459 8.06016 20.8809 8 21.0227 8H22.9773C23.1191 8 23.2541 8.06016 23.349 8.16552L24.249 9.16552C24.5386 9.48728 24.3102 10 23.8773 10H20.1227C19.6898 10 19.4614 9.48728 19.751 9.16552L20.651 8.16552Z" stroke="black"/>
<path d="M28.151 8.16552C28.2459 8.06016 28.3809 8 28.5227 8H30.4773C30.6191 8 30.7541 8.06016 30.849 8.16552L31.749 9.16552C32.0386 9.48728 31.8102 10 31.3773 10H27.6227C27.1898 10 26.9614 9.48728 27.251 9.16552L28.151 8.16552Z" stroke="black"/>
<path d="M35.651 8.16552C35.7459 8.06016 35.8809 8 36.0227 8H37.9773C38.1191 8 38.2541 8.06016 38.349 8.16552L39.249 9.16552C39.5386 9.48728 39.3102 10 38.8773 10H35.1227C34.6898 10 34.4614 9.48728 34.751 9.16552L35.651 8.16552Z" stroke="black"/>
<path d="M28.5 8V7C28.5 6.44772 28.9477 6 29.5 6V6C30.0523 6 30.5 6.44772 30.5 7V8" stroke="black"/>
<path d="M36 8V7C36 6.44772 36.4477 6 37 6V6C37.5523 6 38 6.44772 38 7V8" stroke="black"/>
<path d="M21 8V7C21 6.44772 21.4477 6 22 6V6C22.5523 6 23 6.44772 23 7V8" stroke="black"/>
<rect x="49.5" y="24.5" width="5" height="5" rx="0.5" stroke="black"/>
<rect x="79.5" y="24.5" width="5" height="5" rx="0.5" stroke="black"/>
<path d="M52 30V34.5C52 35.0523 52.4477 35.5 53 35.5H62" stroke="black" stroke-linecap="round"/>
<path d="M82 30V34.5C82 35.0523 81.5523 35.5 81 35.5H72.5" stroke="black" stroke-linecap="round"/>
<path d="M55 27L81 15.5" stroke="black" stroke-linecap="round"/>
<rect x="62" y="33.5" width="10" height="4" rx="0.5" stroke="black"/>
</svg>
