<svg width="50" height="50" viewBox="0 0 50 50" fill="none" xmlns="http://www.w3.org/2000/svg">
<rect width="50" height="50" fill="white"/>
<path d="M9.43112 20.5H10.5689C10.8312 20.5 11.0489 20.7027 11.0676 20.9644L11.9248 32.9644C11.9454 33.2538 11.7162 33.5 11.426 33.5H8.57398C8.28381 33.5 8.05457 33.2538 8.07525 32.9644L8.93239 20.9644C8.95108 20.7027 9.1688 20.5 9.43112 20.5Z" stroke="black"/>
<path d="M8.28936 11.0446L10.3348 16.8199C10.4262 17.0781 10.2896 17.3664 10.0272 17.4593C9.82291 17.5317 9.59496 17.4648 9.46354 17.2962L8.37807 15.9038C8.32882 15.8406 8.29547 15.7665 8.28084 15.6878L7.45917 11.2673C7.4204 11.0587 7.53912 10.853 7.73908 10.7822C7.96351 10.7027 8.20987 10.8202 8.28936 11.0446Z" stroke="black"/>
<path d="M3.53681 22.9111L8.27042 19.0212C8.48203 18.8473 8.79961 18.8776 8.97636 19.0927C9.11392 19.2601 9.12871 19.4972 9.01495 19.6782L8.07536 21.1729C8.03272 21.2408 7.97442 21.2974 7.90536 21.3379L4.02891 23.6158C3.84602 23.7233 3.61212 23.6817 3.47744 23.5178C3.32628 23.3339 3.35286 23.0622 3.53681 22.9111Z" fill="white" stroke="black"/>
<path d="M17.5734 19.4497L11.4488 19.6174C11.175 19.6249 10.9428 19.4061 10.9352 19.1278C10.9293 18.9113 11.063 18.715 11.2639 18.6418L12.9229 18.0379C12.9982 18.0105 13.079 18.0015 13.1584 18.0119L17.6171 18.5912C17.8275 18.6186 17.9867 18.7949 17.9925 19.0069C17.999 19.2449 17.8113 19.4431 17.5734 19.4497Z" fill="white" stroke="black"/>
<rect x="9" y="18" width="2" height="2" rx="0.5" fill="white" stroke="black"/>
<path d="M9.43112 20.5H10.5689C10.8312 20.5 11.0489 20.7027 11.0676 20.9644L11.9248 32.9644C11.9454 33.2538 11.7162 33.5 11.426 33.5H8.57398C8.28381 33.5 8.05457 33.2538 8.07525 32.9644L8.93239 20.9644C8.95108 20.7027 9.1688 20.5 9.43112 20.5Z" stroke="black"/>
<path d="M8.28936 11.0446L10.3348 16.8199C10.4262 17.0781 10.2896 17.3664 10.0272 17.4593C9.82291 17.5317 9.59496 17.4648 9.46354 17.2962L8.37807 15.9038C8.32882 15.8406 8.29547 15.7665 8.28084 15.6878L7.45917 11.2673C7.4204 11.0587 7.53912 10.853 7.73908 10.7822C7.96351 10.7027 8.20987 10.8202 8.28936 11.0446Z" stroke="black"/>
<path d="M3.53681 22.9111L8.27042 19.0212C8.48203 18.8473 8.79961 18.8776 8.97636 19.0927C9.11392 19.2601 9.12871 19.4972 9.01495 19.6782L8.07536 21.1729C8.03272 21.2408 7.97442 21.2974 7.90536 21.3379L4.02891 23.6158C3.84602 23.7233 3.61212 23.6817 3.47744 23.5178C3.32628 23.3339 3.35286 23.0622 3.53681 22.9111Z" fill="white" stroke="black"/>
<path d="M17.5734 19.4497L11.4488 19.6174C11.175 19.6249 10.9428 19.4061 10.9352 19.1278C10.9293 18.9113 11.063 18.715 11.2639 18.6418L12.9229 18.0379C12.9982 18.0105 13.079 18.0015 13.1584 18.0119L17.6171 18.5912C17.8275 18.6186 17.9867 18.7949 17.9925 19.0069C17.999 19.2449 17.8113 19.4431 17.5734 19.4497Z" fill="white" stroke="black"/>
<rect x="9" y="18" width="2" height="2" rx="0.5" fill="white" stroke="black"/>
<path d="M37.4311 20.5H38.5689C38.8312 20.5 39.0489 20.7027 39.0676 20.9644L39.9248 32.9644C39.9454 33.2538 39.7162 33.5 39.426 33.5H36.574C36.2838 33.5 36.0546 33.2538 36.0752 32.9644L36.9324 20.9644C36.9511 20.7027 37.1688 20.5 37.4311 20.5Z" stroke="black"/>
<path d="M36.2894 11.0446L38.3348 16.8199C38.4262 17.0781 38.2896 17.3664 38.0272 17.4593C37.8229 17.5317 37.595 17.4648 37.4635 17.2962L36.3781 15.9038C36.3288 15.8406 36.2955 15.7665 36.2808 15.6878L35.4592 11.2673C35.4204 11.0587 35.5391 10.853 35.7391 10.7822C35.9635 10.7027 36.2099 10.8202 36.2894 11.0446Z" stroke="black"/>
<path d="M31.5368 22.9111L36.2704 19.0212C36.482 18.8473 36.7996 18.8776 36.9764 19.0927C37.1139 19.2601 37.1287 19.4972 37.015 19.6782L36.0754 21.1729C36.0327 21.2408 35.9744 21.2974 35.9054 21.3379L32.0289 23.6158C31.846 23.7233 31.6121 23.6817 31.4774 23.5178C31.3263 23.3339 31.3529 23.0622 31.5368 22.9111Z" fill="white" stroke="black"/>
<path d="M45.5734 19.4497L39.4488 19.6174C39.175 19.6249 38.9428 19.4061 38.9352 19.1278C38.9293 18.9113 39.063 18.715 39.2639 18.6418L40.9229 18.0379C40.9982 18.0105 41.079 18.0015 41.1584 18.0119L45.6171 18.5912C45.8275 18.6186 45.9867 18.7949 45.9925 19.0069C45.999 19.2449 45.8113 19.4431 45.5734 19.4497Z" fill="white" stroke="black"/>
<rect x="37" y="18" width="2" height="2" rx="0.5" fill="white" stroke="black"/>
<path d="M37.4311 20.5H38.5689C38.8312 20.5 39.0489 20.7027 39.0676 20.9644L39.9248 32.9644C39.9454 33.2538 39.7162 33.5 39.426 33.5H36.574C36.2838 33.5 36.0546 33.2538 36.0752 32.9644L36.9324 20.9644C36.9511 20.7027 37.1688 20.5 37.4311 20.5Z" stroke="black"/>
<path d="M36.2894 11.0446L38.3348 16.8199C38.4262 17.0781 38.2896 17.3664 38.0272 17.4593C37.8229 17.5317 37.595 17.4648 37.4635 17.2962L36.3781 15.9038C36.3288 15.8406 36.2955 15.7665 36.2808 15.6878L35.4592 11.2673C35.4204 11.0587 35.5391 10.853 35.7391 10.7822C35.9635 10.7027 36.2099 10.8202 36.2894 11.0446Z" stroke="black"/>
<path d="M31.5368 22.9111L36.2704 19.0212C36.482 18.8473 36.7996 18.8776 36.9764 19.0927C37.1139 19.2601 37.1287 19.4972 37.015 19.6782L36.0754 21.1729C36.0327 21.2408 35.9744 21.2974 35.9054 21.3379L32.0289 23.6158C31.846 23.7233 31.6121 23.6817 31.4774 23.5178C31.3263 23.3339 31.3529 23.0622 31.5368 22.9111Z" fill="white" stroke="black"/>
<path d="M45.5734 19.4497L39.4488 19.6174C39.175 19.6249 38.9428 19.4061 38.9352 19.1278C38.9293 18.9113 39.063 18.715 39.2639 18.6418L40.9229 18.0379C40.9982 18.0105 41.079 18.0015 41.1584 18.0119L45.6171 18.5912C45.8275 18.6186 45.9867 18.7949 45.9925 19.0069C45.999 19.2449 45.8113 19.4431 45.5734 19.4497Z" fill="white" stroke="black"/>
<rect x="37" y="18" width="2" height="2" rx="0.5" fill="white" stroke="black"/>
<path d="M23.4311 21.5H24.5689C24.8312 21.5 25.0489 21.7027 25.0676 21.9644L25.9248 33.9644C25.9454 34.2538 25.7162 34.5 25.426 34.5H22.574C22.2838 34.5 22.0546 34.2538 22.0752 33.9644L22.9324 21.9644C22.9511 21.7027 23.1688 21.5 23.4311 21.5Z" stroke="black"/>
<path d="M22.2894 12.0446L24.3348 17.8199C24.4262 18.0781 24.2896 18.3664 24.0272 18.4593C23.8229 18.5317 23.595 18.4648 23.4635 18.2962L22.3781 16.9038C22.3288 16.8406 22.2955 16.7665 22.2808 16.6878L21.4592 12.2673C21.4204 12.0587 21.5391 11.853 21.7391 11.7822C21.9635 11.7027 22.2099 11.8202 22.2894 12.0446Z" stroke="black"/>
<path d="M17.5368 23.9111L22.2704 20.0212C22.482 19.8473 22.7996 19.8776 22.9764 20.0927C23.1139 20.2601 23.1287 20.4972 23.015 20.6782L22.0754 22.1729C22.0327 22.2408 21.9744 22.2974 21.9054 22.3379L18.0289 24.6158C17.846 24.7233 17.6121 24.6817 17.4774 24.5178C17.3263 24.3339 17.3529 24.0622 17.5368 23.9111Z" fill="white" stroke="black"/>
<path d="M31.5734 20.4497L25.4488 20.6174C25.175 20.6249 24.9428 20.4061 24.9352 20.1278C24.9293 19.9113 25.063 19.715 25.2639 19.6418L26.9229 19.0379C26.9982 19.0105 27.079 19.0015 27.1584 19.0119L31.6171 19.5912C31.8275 19.6186 31.9867 19.7949 31.9925 20.0069C31.999 20.2449 31.8113 20.4431 31.5734 20.4497Z" fill="white" stroke="black"/>
<rect x="23" y="19" width="2" height="2" rx="0.5" fill="white" stroke="black"/>
<path d="M23.4311 21.5H24.5689C24.8312 21.5 25.0489 21.7027 25.0676 21.9644L25.9248 33.9644C25.9454 34.2538 25.7162 34.5 25.426 34.5H22.574C22.2838 34.5 22.0546 34.2538 22.0752 33.9644L22.9324 21.9644C22.9511 21.7027 23.1688 21.5 23.4311 21.5Z" stroke="black"/>
<path d="M22.2894 12.0446L24.3348 17.8199C24.4262 18.0781 24.2896 18.3664 24.0272 18.4593C23.8229 18.5317 23.595 18.4648 23.4635 18.2962L22.3781 16.9038C22.3288 16.8406 22.2955 16.7665 22.2808 16.6878L21.4592 12.2673C21.4204 12.0587 21.5391 11.853 21.7391 11.7822C21.9635 11.7027 22.2099 11.8202 22.2894 12.0446Z" stroke="black"/>
<path d="M17.5368 23.9111L22.2704 20.0212C22.482 19.8473 22.7996 19.8776 22.9764 20.0927C23.1139 20.2601 23.1287 20.4972 23.015 20.6782L22.0754 22.1729C22.0327 22.2408 21.9744 22.2974 21.9054 22.3379L18.0289 24.6158C17.846 24.7233 17.6121 24.6817 17.4774 24.5178C17.3263 24.3339 17.3529 24.0622 17.5368 23.9111Z" fill="white" stroke="black"/>
<path d="M31.5734 20.4497L25.4488 20.6174C25.175 20.6249 24.9428 20.4061 24.9352 20.1278C24.9293 19.9113 25.063 19.715 25.2639 19.6418L26.9229 19.0379C26.9982 19.0105 27.079 19.0015 27.1584 19.0119L31.6171 19.5912C31.8275 19.6186 31.9867 19.7949 31.9925 20.0069C31.999 20.2449 31.8113 20.4431 31.5734 20.4497Z" fill="white" stroke="black"/>
<rect x="23" y="19" width="2" height="2" rx="0.5" fill="white" stroke="black"/>
<path d="M6.5 33.5H13.5" stroke="black" stroke-linecap="round"/>
<path d="M19.5 34.5H28.5" stroke="black" stroke-linecap="round"/>
<path d="M34.5 33.5H41.5" stroke="black" stroke-linecap="round"/>
</svg>
